<?xml version="1.0" standalone="no"?><!DOCTYPE svg PUBLIC "-//W3C//DTD SVG 1.1//EN" "http://www.w3.org/Graphics/SVG/1.1/DTD/svg11.dtd">
<svg height="512" viewBox="0 0 1024 1024" version="1.1" xmlns="http://www.w3.org/2000/svg">
 <path fill="#EF5A28" d="M704.804571 599.771429a82.944 82.944 0 1 0 165.961143 0 82.944 82.944 0 0 0-165.961143 0M641.462857 406.308571a73.728 73.728 0 1 0 0-147.529142 73.728 73.728 0 0 0 0 147.529142m173.933714-136.338285a73.728 73.728 0 1 0 0-147.456 73.728 73.728 0 0 0 0 147.456m62.537143 191.634285a73.728 73.728 0 1 0 0-147.456 73.728 73.728 0 0 0 0 147.456M206.994286 655.140571a64.512 64.512 0 1 0 129.097143 0 64.512 64.512 0 0 0-129.097143 0z m184.393143-101.376a92.16 92.16 0 1 0 0-184.32 92.16 92.16 0 0 0 0 184.32m18.432 175.104a64.512 64.512 0 1 0 129.097142 0 64.512 64.512 0 0 0-129.097142 0m175.177142-64.512a64.512 64.512 0 1 0 0-129.097142 64.512 64.512 0 0 0 0 129.097142M135.021714 888.173714h802.596572c6.729143 0 12.214857 5.412571 12.434285 12.068572v38.546285a12.288 12.288 0 0 1-12.434285 12.068572H84.845714a12.434286 12.434286 0 0 1-12.434285-12.434286V85.577143c0-6.729143 5.412571-12.214857 12.068571-12.434286h38.546286c6.656 0 12.068571 5.632 12.068571 12.434286v802.596571z" />
</svg>